<?xml version="1.0" encoding="UTF-8"?>
<svg width="96px" height="84px" viewBox="0 0 96 84" version="1.1" xmlns="http://www.w3.org/2000/svg" xmlns:xlink="http://www.w3.org/1999/xlink">
    <!-- Generator: Sketch 61.2 (89653) - https://sketch.com -->
    <title>shopping-cart</title>
    <desc>Created with Sketch.</desc>
    <g id="Design" stroke="none" stroke-width="1" fill="none" fill-rule="evenodd">
        <g id="Desktop-HD" transform="translate(-1246.000000, -38.000000)" fill="#000000" fill-rule="nonzero">
            <g id="shopping-cart" transform="translate(1246.000000, 38.000000)">
                <path d="M31.1249127,55.8334545 L81.9380026,55.8334545 C83.1962999,55.8334545 84.3000565,55.0075954 84.6406318,53.8080642 L95.8913326,14.724428 C96.1330313,13.8818481 95.9675043,12.9767471 95.435035,12.2766572 C94.9018334,11.5787481 94.0727342,11.1665455 93.187971,11.1665455 L24.632011,11.1665455 L22.6215187,2.18678183 C22.3358749,0.908008765 21.1932999,0 19.8749443,0 L2.81249211,0 C1.25829735,0 0,1.24896658 0,2.79163638 C0,4.33503331 1.25829735,5.58327275 2.81249211,5.58327275 L17.6176265,5.58327275 L27.774092,50.9473639 C24.7858191,52.2370418 22.6874364,55.1893426 22.6874364,58.6250909 C22.6874364,63.2429227 26.472582,67 31.1249127,67 L81.9380026,67 C83.4929299,67 84.7504947,65.7517606 84.7504947,64.2083636 C84.7504947,62.6656938 83.4929299,61.4167272 81.9380026,61.4167272 L31.1249127,61.4167272 C29.5758447,61.4167272 28.3124206,60.1655798 28.3124206,58.6250909 C28.3124206,57.0846019 29.5758447,55.8334545 31.1249127,55.8334545 Z" id="Path"></path>
                <path d="M31,77 C31,80.8603298 34.1401415,84 38.0003038,84 C41.8598585,84 45,80.8603298 45,77 C45,73.1402778 41.8598585,70 38.0003038,70 C34.1401415,70 31,73.1402778 31,77 Z" id="Path"></path>
                <path d="M67,77 C67,80.8603298 70.1402778,84 74,84 C77.8603298,84 81,80.8603298 81,77 C81,73.1402778 77.8603298,70 74,70 C70.1402778,70 67,73.1402778 67,77 Z" id="Path"></path>
            </g>
        </g>
    </g>
</svg>